<svg width="97" height="24" viewBox="0 0 97 24" fill="none" xmlns="http://www.w3.org/2000/svg">
<path d="M73.8875 8.56943C73.8875 10.3148 73.8875 12.0603 73.8875 13.8057C73.899 14.5261 73.8603 15.2464 73.7717 15.9613C73.6089 17.3504 73.1233 18.6811 72.3542 19.845C71.3237 21.3442 69.8554 22.4819 68.1535 23.0996C67.1971 23.4572 66.2021 23.6993 65.1892 23.8207C64.2522 23.9368 63.3072 23.9746 62.3641 23.9338C60.7815 23.8964 59.2183 23.5744 57.748 22.9828C57.1253 22.721 56.5306 22.3961 55.9731 22.0131C54.4462 20.9744 53.3192 19.4384 52.7807 17.662C52.5271 16.8552 52.3718 16.0203 52.3185 15.1756C52.2864 14.7331 52.2864 14.2893 52.2864 13.8467C52.2864 9.89175 52.2864 5.93681 52.2864 1.98187C52.2864 1.67854 52.2482 1.71707 52.5736 1.71707H58.1203C58.4185 1.71707 58.3877 1.68724 58.3877 1.95825C58.3877 6.0516 58.3877 10.1454 58.3877 14.2395C58.3747 14.8872 58.4839 15.5314 58.7094 16.1379C58.9657 16.8167 59.3985 17.4133 59.9625 17.865C60.5264 18.3168 61.2006 18.6069 61.9142 18.705C62.8201 18.8879 63.7557 18.8572 64.648 18.6155C65.3381 18.456 65.9729 18.1122 66.4858 17.62C66.9987 17.1279 67.3708 16.5055 67.5631 15.8184C67.7155 15.2984 67.7891 14.7581 67.7813 14.2159C67.7813 10.1433 67.7813 6.07025 67.7813 1.99679C67.7813 1.67108 67.7394 1.71707 68.0734 1.71707H73.6028C73.6546 1.71707 73.7076 1.71707 73.7606 1.71707C73.8444 1.71707 73.8838 1.74567 73.8838 1.82523C73.8838 1.90479 73.8838 1.94955 73.8838 2.01171L73.8875 8.56943Z" fill="#333333"/>
<path d="M11.7429 6.44501C11.6493 6.42004 11.5521 6.41204 11.4557 6.42139H0.892461C0.537475 6.42139 0.59664 6.44127 0.59664 6.14167C0.59664 4.76341 0.59664 3.38473 0.59664 2.00564C0.59664 1.95716 0.59664 1.90868 0.59664 1.86019C0.59664 1.78187 0.626222 1.74458 0.719899 1.74955C0.771668 1.74955 0.824668 1.74955 0.877669 1.74955H19.6611C19.9594 1.74955 19.9322 1.71226 19.9322 2.00937C19.9322 3.11828 19.9322 4.22595 19.9322 5.33485C19.9351 5.47353 19.8832 5.60767 19.788 5.7078C16.0467 9.99094 12.3066 14.2762 8.56779 18.5634C8.5112 18.6125 8.46615 18.6737 8.4359 18.7425C8.52168 18.764 8.6106 18.7699 8.69844 18.7599H20.0493C20.4191 18.7599 20.3637 18.7325 20.3649 19.0433C20.3649 20.4216 20.3649 21.8002 20.3649 23.1793C20.3649 23.2278 20.3649 23.2763 20.3649 23.3248C20.3649 23.4056 20.3279 23.4379 20.2416 23.4329C20.1899 23.4329 20.1369 23.4329 20.0839 23.4329H0.284795C-0.0356781 23.4329 0.00130005 23.4665 0.00130005 23.1644C0.00130005 22.0356 0.00130005 20.9056 0.00130005 19.7768C-0.000297654 19.7181 0.00978725 19.6597 0.0309588 19.605C0.0521303 19.5504 0.0839576 19.5006 0.124558 19.4585C2.30501 17.0182 4.4719 14.5666 6.66467 12.1375C8.31141 10.3138 9.93596 8.47386 11.579 6.64764C11.6295 6.58548 11.6801 6.52084 11.7429 6.44501Z" fill="#333333"/>
<path d="M81.0895 16.2685C81.2473 16.4277 81.4001 16.5893 81.5616 16.7422C82.7744 17.9156 84.284 18.7297 85.925 19.0955C86.7782 19.3031 87.6634 19.3399 88.5307 19.2037C89.1553 19.1231 89.7441 18.8643 90.2279 18.4578C90.4844 18.2588 90.6736 17.9849 90.7698 17.6733C90.866 17.3618 90.8644 17.0279 90.7653 16.7173C90.641 16.3646 90.4099 16.0601 90.1047 15.8471C89.6035 15.4952 89.0496 15.2266 88.4641 15.0515C86.7964 14.4585 85.0991 13.9326 83.4783 13.229C82.6717 12.8972 81.9182 12.4468 81.2424 11.8926C80.2163 11.0527 79.5406 9.85472 79.3491 8.53601C79.1838 7.53887 79.2721 6.51575 79.6055 5.56235C79.9695 4.58994 80.5823 3.73209 81.3817 3.07601C82.5108 2.13568 83.8627 1.50725 85.305 1.25228C86.6446 0.992256 88.014 0.924039 89.3725 1.04964C91.4212 1.18902 93.3937 1.88728 95.0794 3.06979C95.4793 3.35795 95.8613 3.67057 96.2232 4.0059C96.2997 4.07676 96.3132 4.13022 96.2405 4.21351C95.2684 5.3738 94.2987 6.53616 93.3316 7.7006C93.3247 7.70664 93.3173 7.71205 93.3094 7.71676C93.2274 7.6736 93.1525 7.61782 93.0875 7.55142C92.1552 6.75367 91.0616 6.17074 89.8828 5.8433C89.0818 5.61589 88.2465 5.53712 87.4176 5.61083C86.8617 5.65442 86.3289 5.85377 85.8794 6.18642C85.6873 6.31861 85.5281 6.49378 85.4143 6.69826C85.3004 6.90275 85.235 7.131 85.2231 7.36521C85.2111 7.59941 85.253 7.83323 85.3455 8.0484C85.438 8.26358 85.5785 8.45428 85.7561 8.60563C86.1635 8.94567 86.6347 9.19936 87.1415 9.35154C88.6921 9.88237 90.2378 10.4231 91.7638 11.0099C92.6635 11.3348 93.5207 11.769 94.3164 12.3028C95.2283 12.9031 95.9615 13.7418 96.4377 14.7295C96.833 15.6147 96.9911 16.5891 96.8962 17.5552C96.8314 18.4801 96.5465 19.3757 96.0655 20.1659C95.4585 21.1189 94.6409 21.9171 93.6767 22.4981C92.677 23.1144 91.5716 23.536 90.4178 23.7412C89.0911 23.9844 87.7393 24.0567 86.3946 23.9563C84.9723 23.8771 83.5721 23.5665 82.2482 23.0364C80.5871 22.3582 79.1088 21.2932 77.9341 19.9284C77.87 19.8538 77.8478 19.8041 77.9267 19.7183C78.9629 18.5879 79.9966 17.4554 81.0279 16.3208C81.0461 16.3007 81.0668 16.2831 81.0895 16.2685Z" fill="#333333"/>
<path d="M16.8286 11.619C17.3845 11.6115 17.9379 11.6053 18.4877 11.619C19.104 11.6364 19.7314 11.6302 20.3526 11.6339C21.2437 11.6339 22.1361 11.6339 23.0273 11.6513C24.6149 11.6836 26.2037 11.6612 27.7912 11.6936C29.1323 11.7209 30.4734 11.711 31.8132 11.7271C32.0794 11.7271 32.0868 11.7271 32.0449 11.4897C31.9759 11.0944 31.9993 10.6916 31.9303 10.2962C31.9106 10.1856 31.8686 10.0837 31.8489 9.9755C31.8243 9.84124 31.8588 9.80643 31.9993 9.82135C32.8313 9.90961 33.6645 9.99912 34.4965 10.0861C35.0993 10.1483 35.702 10.2105 36.3047 10.2664L36.9555 10.3348C36.9617 9.92702 36.8323 9.53791 36.8421 9.14133C36.852 8.74476 36.7189 8.35316 36.73 7.93919L42.3037 8.90389C42.3198 8.77957 42.247 8.70996 42.215 8.62791C42.0182 8.18505 41.7381 7.78483 41.3904 7.44938C40.9068 6.93414 40.3467 6.49796 39.7301 6.15648C38.9128 5.7113 38.0196 5.42575 37.0973 5.31485C36.6594 5.25599 36.2176 5.23105 35.776 5.24026C34.2902 5.24203 32.8452 5.73058 31.6585 6.63236C30.4719 7.53414 29.6078 8.80034 29.1964 10.2403C29.1754 10.3286 29.1607 10.4168 29.1397 10.5051C29.0867 10.7313 29.009 10.7948 28.7527 10.7923C28.341 10.7923 27.9293 10.7798 27.5201 10.7699C26.6745 10.7512 25.8277 10.7376 24.9822 10.7077C24.4801 10.6895 23.9784 10.6791 23.4772 10.6767C23.4402 10.6767 23.402 10.6767 23.365 10.6767C23.1851 10.6605 23.1444 10.6207 23.1518 10.4516C23.1724 10.1819 23.2115 9.91402 23.2689 9.64979C23.6111 7.98908 24.3489 6.4373 25.4185 5.12838C26.1574 4.15056 27.0287 3.28222 28.007 2.5488C29.3712 1.55357 30.9194 0.844246 32.5601 0.462757C33.8816 0.131557 35.2404 -0.0230923 36.6018 0.0027831C38.5712 0.0426656 40.5057 0.535013 42.2581 1.44238C43.4445 2.05305 44.5409 2.82708 45.5159 3.74224C46.6507 4.80814 47.5351 6.11634 48.1043 7.57121C48.4913 8.52488 48.7403 9.52969 48.8439 10.5548C48.9359 11.5282 48.9007 12.5096 48.7391 13.4738C48.6922 13.7547 48.585 13.8231 48.2744 13.7597C46.9522 13.4912 45.6305 13.2218 44.3092 12.9517L41.4409 12.3611L41.3534 12.345C41.2585 12.3288 41.2302 12.3723 41.2449 12.4507C41.2795 12.6993 41.3115 12.9591 41.3436 13.2127C41.3805 13.5011 41.4187 13.7896 41.4557 14.0829C41.4606 14.1032 41.4609 14.1244 41.4566 14.1448C41.4523 14.1652 41.4436 14.1844 41.4311 14.201C41.118 14.1613 40.7951 14.1227 40.4721 14.0767C39.8053 13.9885 39.1422 13.8679 38.4729 13.8132C37.451 13.7299 36.444 13.5645 35.4296 13.4402C35.2644 13.4203 35.2533 13.4328 35.2743 13.5919C35.3425 14.114 35.4095 14.6361 35.4752 15.1583C35.4778 15.2059 35.4778 15.2536 35.4752 15.3012C35.2287 15.2553 34.997 15.2142 34.7652 15.1682C31.7084 14.5649 28.6516 13.9619 25.5948 13.3594C24.5853 13.1618 23.5647 13.0175 22.5577 12.8074C22.0646 12.7043 21.5568 12.6346 21.0675 12.5091C19.7412 12.1709 18.3829 11.9683 17.0443 11.6811C16.9679 11.66 16.8976 11.6326 16.8286 11.619Z" fill="#FED430"/>
<path d="M23.5388 14.0904C23.7866 14.0837 24.0344 14.1025 24.2784 14.1464C25.6342 14.3179 26.979 14.5504 28.325 14.7829C28.802 14.8662 29.2777 14.9607 29.7572 15.0315C29.8543 15.0433 29.9472 15.0778 30.0288 15.1322C30.1103 15.1866 30.1781 15.2594 30.2268 15.3448C30.5235 15.8171 30.8776 16.2502 31.2807 16.634C32.0807 17.374 33.0699 17.8735 34.1366 18.076C34.9126 18.2415 35.7055 18.3128 36.4983 18.2886C37.4153 18.2602 38.3185 18.0556 39.1594 17.6857C39.9466 17.336 40.667 16.85 41.2881 16.2498C41.4606 16.087 41.5075 16.0845 41.6948 16.2498L44.796 18.9015C45.0265 19.0992 45.2595 19.2944 45.4887 19.4933C45.6638 19.6462 45.665 19.6959 45.5048 19.8501C43.8363 21.4534 41.7781 22.5846 39.5378 23.1295C38.23 23.4574 36.8813 23.5877 35.5356 23.5162C33.9844 23.4598 32.4525 23.1499 30.9997 22.5987C29.3922 21.9691 27.9282 21.0166 26.6967 19.7991C25.4016 18.5752 24.4247 17.0489 23.8519 15.3548C23.7475 15.0365 23.6567 14.7153 23.5795 14.3913C23.5524 14.2993 23.5474 14.2023 23.5388 14.0904Z" fill="#FED430"/>
</svg>
